<svg xmlns="http://www.w3.org/2000/svg" viewBox="0 0 500.2 115.7"><defs><style>.cls-3{fill:#2c2b2a}.cls-4{fill:#a12c3a}.cls-5{fill:#31302f}</style></defs><path d="M107 0l1.2.4a9.7 9.7 0 0 1 7.4 9.4V106a9.7 9.7 0 0 1-10 9.7h-95c-5.7 0-9-2.5-10.4-8l-.2-.1V8.2l.4-1A9.7 9.7 0 0 1 7.7.3L8.9 0zM12.7 91.6l.4-1A47.4 47.4 0 0 1 46.4 60a70.2 70.2 0 0 1 26-1.4 88.3 88.3 0 0 1 30 8.7l.9.3.2-.2L99 62a3.5 3.5 0 0 1-.6-1.7 46.7 46.7 0 0 0-.5-5.6 18.7 18.7 0 0 0-10-12 52 52 0 0 0-21.7-5.6 3 3 0 0 1-1.5-.3 27.7 27.7 0 0 0-13.3-5 27.3 27.3 0 0 0-8.3.2c4 1 9.9 4.6 11 6.8H54a43.3 43.3 0 0 0-28.2 18.6 77.4 77.4 0 0 0-10.3 21.9c-1.3 4-2.7 8-2.7 12.3z" fill="#b0283c"/><path d="M8.9 0L7.7.3A9.7 9.7 0 0 0 .4 7.2l-.4 1V0z" fill="#fefefe"/><path class="cls-3" d="M152 45.6V23a3 3 0 0 1 3.2-3.2h17a30 30 0 0 1 12 2.4 23 23 0 0 1 14 18.7 27.4 27.4 0 0 1-1.3 14.3 23.5 23.5 0 0 1-19 15.4 39.6 39.6 0 0 1-6.4.6H155a3 3 0 0 1-3-3.1q-.2-11.3-.1-22.6zm8.7 17.8h11c9.5-.1 18.7-6.6 18-19a16.8 16.8 0 0 0-12.2-15.7c-5.5-1.6-11.2-.5-16.8-1z"/><path class="cls-4" d="M346.6 44.8A26.2 26.2 0 0 1 371 19.4a26.3 26.3 0 0 1 26.2 12.8 26 26 0 0 1-17 39 27 27 0 0 1-30.3-13 26.8 26.8 0 0 1-3.2-13.4zM374 27.6a18 18 0 1 0-.1 36 17.7 17.7 0 0 0 18.1-18 17.7 17.7 0 0 0-18-18z"/><path class="cls-3" d="M263.7 34L257 48.3l-9.5 20.7a3.3 3.3 0 0 1-3.4 2.2 8.2 8.2 0 0 0-2 0c-1.7.3-2.6-.7-3.1-2.1a3.2 3.2 0 0 1 .3-2.2l15.4-33.6 5.4-11.8a4 4 0 0 1 7 0l21 45.5a2.8 2.8 0 0 1-2.7 4.2h-2.3a3.2 3.2 0 0 1-3.4-2.2L269 45.6 264.2 35l-.5-1.2z"/><path class="cls-4" d="M301.4 63.3v-1c0-2.1.4-2.8 2.5-3.3a2.9 2.9 0 0 1 1.7.4c2 1 4 2.4 6 3.3a8.5 8.5 0 0 0 6.1.6 6.5 6.5 0 0 0 5-5.2 6 6 0 0 0-3-6.7l-6.4-2.9-4.6-2c-10.2-4.6-10.1-17.3-2.9-23.3a16.6 16.6 0 0 1 10-4 3 3 0 0 1 3 2.8v2.5a3 3 0 0 1-2.9 3.1c-3.9.5-6.4 3-6.3 6.4a4.8 4.8 0 0 0 2.4 4.3 54.7 54.7 0 0 0 5 2.5l6 2.5c6.3 2.9 9.1 7.4 8.7 14.4-.4 6.5-4 10.7-9.8 13.1a17.9 17.9 0 0 1-13.7-.4c-1.6-.6-3-1.5-4.6-2.2a3.6 3.6 0 0 1-2.2-4 7.7 7.7 0 0 0 0-.9zM426.8 48.5v19.7a2.9 2.9 0 0 1-3 3.2h-2.3c-2.1 0-3.2-1.2-3.2-3.4V23.1a3 3 0 0 1 3.2-3.2h22.4c2.1 0 3.3 1.1 3.2 3.2 0 1.3.6 2.9-.9 3.9a4.4 4.4 0 0 1-2.1.8h-17.2v12.7h15.4a3 3 0 0 1 2.9 2.9v2a3 3 0 0 1-3.1 3h-15.3zM482.7 27.8v40c0 2.5-1 3.5-3.5 3.5h-1.9a2.9 2.9 0 0 1-3.2-3.2V27.8h-14.4a3 3 0 0 1-3-2.9v-2a2.9 2.9 0 0 1 3-3H497a3 3 0 0 1 3 3v2a3 3 0 0 1-3 3h-13z"/><path class="cls-3" d="M216 45.5V23a2.9 2.9 0 0 1 3.1-3.1h2.3a3 3 0 0 1 3.2 3.2v45a3 3 0 0 1-3.2 3.2h-2.2a3 3 0 0 1-3.2-3.2zM263.7 71.3H257a2.8 2.8 0 0 1-2.5-3.8l1-2.3a3 3 0 0 1 3-1.8h10.4a3 3 0 0 1 3 1.8l.7 1.6a2.6 2.6 0 0 1-.3 3.5 3.2 3.2 0 0 1-1.9 1h-6.7zM418.1 99h-14.4V86.6h2v10.4h4.4V86.8h2.2V97h4.2V86.7h2.2v10.4l1.2.2v5.4H418z"/><path class="cls-5" d="M460.9 89.2l-3.2 8.6c-.3.6-.4 1.1-1.3 1.1s-1-.6-1.1-1.1l-3.1-8.8-.6 9.9h-2l1-12a1.3 1.3 0 0 1 .3-.2c2.4 0 2.4 0 3.2 2.1l2.6 7.4 2.7-7.7c.7-1.8.7-1.8 2.6-1.8h.8l.9 12.2h-2.1l-.5-9.7zM161 92.4c2.1 1 2.8 2 2.6 3.5s-1.4 2.6-3.5 2.9-4.2.2-6.3.3V86.8c2.4-.2 4.7-.5 7 .2a2.7 2.7 0 0 1 .5 5.1 2 2 0 0 0-.3.2v.1zm-5.1 5.2l4-.4a1.8 1.8 0 0 0 0-3.6l-4-.4zm.1-5.6a26.3 26.3 0 0 0 3.9-.7 1.6 1.6 0 0 0-.2-3 22.7 22.7 0 0 0-3.7-.3zM385.7 93.1l-1-.4a2.9 2.9 0 0 1-1.8-2.5 2.7 2.7 0 0 1 1.6-2.8 13.3 13.3 0 0 1 3.6-.8c1.4-.2 2.9 0 4.3 0v12.3h-2V94c-2.7-.6-4 0-5 2.4 0 .2 0 .5-.2.7-.8 2-.2 2-3 1.7 1.8-4.6 1.8-4.6 3.5-5.7zm4.5-5.1l-3.6.4a1.7 1.7 0 0 0-1.4 1.6 1.7 1.7 0 0 0 1.2 1.8 33.4 33.4 0 0 0 3.8.6zM367 99.2c-3.4 0-5.8-2.6-5.8-6.3s2.5-6.5 6.2-6.5c3.4 0 5.8 2.6 5.8 6.4s-2.5 6.4-6.1 6.4zm4.2-6.2a19.1 19.1 0 0 0-1.2-3.3 3.3 3.3 0 0 0-5.5-.3 6.2 6.2 0 0 0 0 6.8 3.2 3.2 0 0 0 5 .2 16.6 16.6 0 0 0 1.7-3.4zM233.9 88.5h-5.7v10.3H226v-12h10v12h-2.1zM246.2 92.8c.3-4.5 3.9-7.3 8-6.2h.1c2.5.8 4 3.2 4 6.2 0 3.1-1.7 5.4-4.5 6.2a5.6 5.6 0 0 1-6.5-2.5 21 21 0 0 1-1.1-3.7zm10.1 0a18.6 18.6 0 0 0-1-3 3.3 3.3 0 0 0-5.8-.1 5.7 5.7 0 0 0 0 6.1 3.2 3.2 0 0 0 5.5.2 16.6 16.6 0 0 0 1.3-3.1zM439.9 93.2h-8.2c-.9 3.3 2.4 5 7.2 3.7l.4 1.4c-3.2 1.6-8.7 1.4-9.8-3.3a7.2 7.2 0 0 1 1.6-7 5.5 5.5 0 0 1 6.3-1c2 1 3 3.7 2.5 6.2zm-2.1-1.6c0-2.2-1-3.5-2.9-3.6a3.3 3.3 0 0 0-3.3 3.6zM473.7 104.6l-.6-1.9.3.2c1-1 2.2-2.1 3.2-3.3a1.9 1.9 0 0 0 .1-2L473 88l-.4-1.2.4-.1c1.9-.1 1.9-.1 2.5 1.6l3 8 3.1-9.6h2.2s.1.2 0 .2c-1.5 4-3 8.2-4.7 12.1a18.3 18.3 0 0 1-3 4.4 7.8 7.8 0 0 1-2.3 1.2zM201.7 97l.3 1.3c-4 2.3-9 .6-9.9-3.6a7.1 7.1 0 0 1 1.6-6.6 5.5 5.5 0 0 1 6.4-1.1c1.9 1 3 3.7 2.5 6.2h-8.3c-.5 3.4 2 4.6 7.3 3.8zm-7.5-5.4h6.4c-.2-2.4-1.2-3.5-3-3.5s-3.2 1.3-3.4 3.4z"/><path class="cls-3" d="M292 93.4h-5.7v5.4H284v-12h2.2v4.8h5.8v-4.9h2.1V99h-2.1z"/><path class="cls-5" d="M314.1 98.9h-1.8l-.2-1.4-1 .8a4.5 4.5 0 0 1-4.8.4 3.2 3.2 0 0 1-1.8-3.4 3.7 3.7 0 0 1 2.7-3.4 46 46 0 0 1 4.6-1c.4-2.7-1.9-3.5-6-2l-.4-1.4a7.4 7.4 0 0 1 6-.8c1.7.6 2.6 2.2 2.7 4.4V99zm-2.1-6.5a39 39 0 0 0-4 1 1.8 1.8 0 0 0-1.2 2.2 2.8 2.8 0 0 0 1.2 1.7 3 3 0 0 0 4-2.4v-2.5zM334 87.1l-.5 1.6c-2.2-.7-4.4-1-6 1.2a5.1 5.1 0 0 0 0 5.8c1.7 2.1 3.8 1.9 6.2 1.2l.3 1.4a6.8 6.8 0 0 1-8-1 7 7 0 0 1-.3-8.4 6.8 6.8 0 0 1 8.4-1.8zM182.4 96.9l.3 1.5c-2.7 1.4-6.3.9-8-1.2a7.1 7.1 0 0 1-.2-8.4 6.9 6.9 0 0 1 8.3-1.7l-.5 1.6c-2.3-.7-4.6-1-6.1 1.4a5.3 5.3 0 0 0 .1 5.6c1.2 1.7 3 2 6 1.2zM349.1 98.9h-2.3V88.4h-3.7v-1.7h9.7v1.7h-3.7zM267.7 92.8v-1.5h6.1v1.5zM198.7 83c.5-.3 1-1 1.4-1s1 .7 1.2 1.1a1 1 0 0 1-1.1 1.3c-.5 0-1-.6-1.5-.9zM196.8 83.5c-.4.3-.9.9-1.4 1-.8 0-1.2-.5-1.2-1.3a1.1 1.1 0 0 1 1.3-1.2c.5 0 .9.6 1.3 1z"/></svg>